# xmcd
#
# Track frame offsets:
#  150
#  15489
#  34258
#  45206
#  60046
#  78816
#  91930
#  105988
#  128614
#  150079
#  165840
#  180372
#  199187
#  213122
#  228894
#  239472
#  254046
#
# Disc length: 3623 seconds
#
# Revision: 5
# Processed by: cddbd v1.5.1PL2 Copyright (c) Steve Scherf et al.
# Submitted via: Collectorz.com_Music_Collector 6.11
#
DISCID=b00e2511
DTITLE=Various Artist - Triple J's Blues, Roots and Beyond.Volume 1 [CD1)
DYEAR=2004
DGENRE=Blues Vocals
TTITLE0=Carus And The True Believers - Ain't No Crime
TTITLE1=Jeff Lang - The Save
TTITLE2=Georgeous - Whenever It Rains
TTITLE3=Femi Kuti - Stop Aids
TTITLE4=Jez - All Fall Down
TTITLE5=Corb Lund Band - Time To Switch To Whisky
TTITLE6=The Donavon Frankenreiter Band - It Don't Matter
TTITLE7=Xavier Rudd - Solace
TTITLE8=Abbie Cardwell - Anchored
TTITLE9=Harry Manx - Sittin' On Top Of The World
TTITLE10=Iron and Wine - The Night Descending
TTITLE11=Derrin Nauendorf - Strange Feeling
TTITLE12=Clare Bowditch - Ms Unavailability
TTITLE13=Hat Fitz and Freakz - Po Boy
TTITLE14=The Waifs - The Waitress
TTITLE15=Dawn Penn - You Don't Love Me (No, No, No) Trojan Mix
TTITLE16=Ryan Toohey - Late Night Lovers
EXTD=
EXTT0=
EXTT1=
EXTT2=
EXTT3=
EXTT4=
EXTT5=
EXTT6=
EXTT7=
EXTT8=
EXTT9=
EXTT10=
EXTT11=
EXTT12=
EXTT13=
EXTT14=
EXTT15=
EXTT16=
PLAYORDER=
